<svg role="img" viewBox="0 0 24 24" xmlns="http://www.w3.org/2000/svg" id="protonvpn">
  <path d="m10.176 20.058 0.858 -1.28 6.513 -9.838c0.57 -0.86 0.026 -2.014 -1.005 -2.131L0.378 4.95l8.373 15.055a0.84 0.84 0 0 0 1.424 0.052h0.001zM23.586 7.14l-9.662 14.61c-1.036 1.567 -3.38 1.478 -4.293 -0.162l-0.093 -0.168c0.3 -0.01 0.594 -0.086 0.855 -0.235a1.85 1.85 0 0 0 0.612 -0.57l0.86 -1.28 6.516 -9.844c0.46 -0.694 0.525 -1.56 0.173 -2.314a2.375 2.375 0 0 0 -1.899 -1.364L0.493 3.956l-0.476 -0.054C-0.163 2.392 1.101 0.95 2.784 1.143l18.991 2.16c1.856 0.21 2.835 2.289 1.812 3.838z" fill="currentColor" stroke-width="1"></path>
</svg>
